<?xml version="1.0" encoding="utf-8"?>
<!-- Generator: Adobe Illustrator 15.0.0, SVG Export Plug-In . SVG Version: 6.00 Build 0)  -->
<!DOCTYPE svg PUBLIC "-//W3C//DTD SVG 1.1//EN" "../../www.w3.org/Graphics/SVG/1.1/DTD/svg11.dtd">
<svg version="1.1" id="Layer_1" xmlns="http://www.w3.org/2000/svg" xmlns:xlink="../../www.w3.org/1999/xlink" x="0px" y="0px"
	 width="34.5px" height="16.656px" viewBox="0 0 34.5 16.656" enable-background="new 0 0 34.5 16.656" xml:space="preserve">
<g>
	<path opacity="0.76" fill="none" stroke="#5C6366" stroke-width="2" stroke-miterlimit="10" enable-background="new    " d="
		M14.028,8.182c2.823,0.137,5.661,0.139,8.485,0.21c1.338,0.036,5.349-0.003,4.785,2.232c-0.781,3.087-6.729,1.975-8.723,1.813
		c-3.115-0.252-6.261-0.009-9.387-0.019c-2.914-0.006-6.241-0.179-6.308-4.015C2.808,4.318,6.547,4.059,9.637,4.059
		c2.356,0,4.715-0.034,7.073-0.07c4.861-0.071,10.756-1.464,14.229,2.708c0.907,1.089,1.372,2.461,1.163,3.892
		c-0.905,6.143-8.051,5.875-12.711,6.083c-4.176,0.188-8.362,0.254-12.538,0.367c-1.081,0.027-2.163,0.12-3.245,0.114"/>
	<path fill="none" stroke="#FFFFFF" stroke-width="1.5" stroke-miterlimit="10" d="M13.7,6.641c2.823,0.138,5.66,0.139,8.484,0.211
		c1.339,0.035,5.35-0.003,4.786,2.229c-0.781,3.091-6.729,1.979-8.724,1.816c-3.114-0.257-6.259-0.01-9.385-0.02
		c-2.915-0.008-6.241-0.181-6.31-4.017c-0.07-4.083,3.67-4.345,6.759-4.344c2.356,0,4.714-0.033,7.072-0.069
		c4.86-0.072,10.755-1.464,14.228,2.708c0.909,1.089,1.372,2.461,1.164,3.89c-0.904,6.143-8.05,5.877-12.712,6.086
		c-4.175,0.186-8.361,0.251-12.538,0.364c-1.081,0.029-2.163,0.122-3.246,0.117"/>
</g>
</svg>
