<?xml version="1.0" encoding="utf-8"?>
<!-- Generator: Adobe Illustrator 15.0.0, SVG Export Plug-In . SVG Version: 6.00 Build 0)  -->
<!DOCTYPE svg PUBLIC "-//W3C//DTD SVG 1.1//EN" "../../www.w3.org/Graphics/SVG/1.1/DTD/svg11.dtd">
<svg version="1.1" xmlns="http://www.w3.org/2000/svg" xmlns:xlink="../../www.w3.org/1999/xlink" x="0px" y="0px"
	 width="286.074px" height="20.74px" viewBox="0 0 286.074 20.74" enable-background="new 0 0 286.074 20.74" xml:space="preserve">
<g id="Layer_1">
</g>
<g id="Layer_2">
	<g>
		<g opacity="0.34">
			<polygon fill="#353535" points="252.188,3.783 252.16,12.61 29.907,11.92 29.933,3.557 			"/>
			<polygon fill="#353535" points="252.163,11.914 252.136,20.74 29.881,20.05 29.907,11.688 			"/>
			<polygon fill="#353535" points="0.053,3 0.025,11.827 30.619,11.921 30.645,3.56 			"/>
			<polygon fill="#353535" points="0.026,11.13 0,19.957 30.594,20.052 30.62,11.69 			"/>
			<polygon fill="#353535" points="252.188,3.783 276.791,9.9 276.775,14.777 252.136,20.74 			"/>
			<polygon fill="#353535" points="286.074,12.483 276.791,9.9 276.775,14.777 			"/>
			
				<rect x="26.094" y="5.216" transform="matrix(0.0033 -1 1 0.0033 22.4335 37.8938)" fill="#353535" width="8.262" height="4.955"/>
			
				<rect x="25.973" y="13.361" transform="matrix(0.0031 -1 1 0.0031 14.2675 45.9883)" fill="#353535" width="8.453" height="4.955"/>
		</g>
		<g>
			<polygon fill="#626B7C" points="252.188,0.783 252.16,9.61 29.907,8.92 29.933,0.557 			"/>
			<polygon fill="#464E5B" points="252.163,8.914 252.135,17.74 29.881,17.05 29.907,8.688 			"/>
			<polygon fill="#4A4E51" points="0.053,0 0.025,8.827 30.619,8.921 30.645,0.56 			"/>
			<polygon fill="#333333" points="0.026,8.13 0,16.957 30.594,17.052 30.62,8.69 			"/>
			<polygon fill="#F9F9F9" points="252.188,0.783 276.791,6.9 276.775,11.777 252.135,17.74 			"/>
			<polygon fill="#262626" points="286.074,9.483 276.791,6.9 276.775,11.777 			"/>
			
				<rect x="26.094" y="2.216" transform="matrix(0.0033 -1 1 0.0033 25.4335 34.9035)" fill="#C4C4C4" width="8.262" height="4.955"/>
			
				<rect x="25.973" y="10.361" transform="matrix(0.0031 -1 1 0.0031 17.2674 42.9977)" fill="#969696" width="8.453" height="4.955"/>
		</g>
	</g>
	<path fill="none" stroke="#494949" stroke-width="2" stroke-miterlimit="10" d="M286.813,180.417
		c4.316,0.21,8.653,0.212,12.976,0.322c2.046,0.053,8.18-0.006,7.316,3.411c-1.194,4.724-10.287,3.024-13.339,2.775
		c-4.763-0.389-9.572-0.015-14.354-0.027c-4.457-0.012-9.544-0.277-9.646-6.143c-0.109-6.245,5.609-6.644,10.333-6.643
		c3.604,0,7.21-0.052,10.813-0.105c7.435-0.11,16.447-2.239,21.759,4.14c1.39,1.668,2.1,3.765,1.777,5.95
		c-1.383,9.394-12.31,8.985-19.438,9.304c-6.384,0.286-12.784,0.386-19.172,0.559c-1.651,0.045-3.308,0.184-4.961,0.177"/>
	
		<image overflow="visible" width="278" height="45" xlink:href="E9D4EBF3.jpg"  transform="matrix(0.9999 0 0 0.9999 272.29 386.9551)">
	</image>
</g>
<g id="Layer_3">
</g>
</svg>
