<?xml version="1.0" encoding="utf-8"?>
<!-- Generator: Adobe Illustrator 15.0.0, SVG Export Plug-In . SVG Version: 6.00 Build 0)  -->
<!DOCTYPE svg PUBLIC "-//W3C//DTD SVG 1.1//EN" "../../../www.w3.org/Graphics/SVG/1.1/DTD/svg11.dtd">
<svg version="1.1" id="Layer_1" xmlns="http://www.w3.org/2000/svg" xmlns:xlink="../../../www.w3.org/1999/xlink" x="0px" y="0px"
	 width="30.063px" height="37.825px" viewBox="0 0 30.063 37.825" enable-background="new 0 0 30.063 37.825" xml:space="preserve">
<g>
	<g>
		<g>
			<path fill="none" stroke="#111111" stroke-width="2.5" stroke-miterlimit="10" d="M14.794,7.799"/>
			<path fill="#111111" d="M11.385,13.856c-2.502-1.249-4.057-3.755-4.057-6.542C7.328,3.281,10.609,0,14.643,0
				c4.032,0,7.313,3.281,7.313,7.313c0,2.658-1.446,5.109-3.774,6.398l-1.211-2.188c1.533-0.849,2.485-2.462,2.485-4.211
				c0-2.654-2.159-4.813-4.813-4.813c-2.655,0-4.814,2.159-4.814,4.813c0,1.833,1.024,3.483,2.673,4.305L11.385,13.856z"/>
			
				<rect x="12.671" y="16.931" transform="matrix(0.2254 0.9743 -0.9743 0.2254 32.434 -4.4308)" fill="#111111" width="12.665" height="2.5"/>
			
				<rect x="9.3" y="11.974" transform="matrix(0.9749 0.2226 -0.2226 0.9749 4.3259 -1.8909)" fill="#111111" width="2.5" height="12.534"/>
		</g>
	</g>
	<path fill="#111111" d="M0.028,23.897v13.17c0,0,0,0.707,0.657,0.758h3.951l2.92-3.487c0,0,0.253-0.758,0.961,0.354l1.818,3.032
		h9.269l2.021-3.437c0,0,0.405-1.011,0.961,0.253l2.718,3.132h4.144c0,0,0.707-0.051,0.606-1.061V24.05c0,0,0.151-0.607-1.062-0.961
		H0.382C0.382,23.089-0.123,23.24,0.028,23.897z"/>
</g>
</svg>
